<svg role="img" aria-hidden="true" width="167.46" height="24.48" viewBox="0 0 167.46 24.48" xmlns="http://www.w3.org/2000/svg">
<title>Mimi Couture Home</title>
<g id="svgGroup" stroke-linecap="round" fill-rule="evenodd" font-size="9pt" stroke="#00001a" stroke-width="0.25mm" fill="#00001a" style="stroke:#00001a;stroke-width:0.25mm;fill:#00001a"><path d="M 14.01 24.36 Q 13.95 24.39 13.89 24.39 L 13.65 24.39 A 3.2 3.2 0 0 1 13.272 24.366 Q 13.082 24.343 12.871 24.299 A 6.079 6.079 0 0 1 12.675 24.255 Q 12.12 24.12 11.595 23.925 Q 11.105 23.743 10.745 23.522 A 3.417 3.417 0 0 1 10.695 23.49 A 3.029 3.029 0 0 1 10.525 23.374 Q 10.368 23.257 10.287 23.157 A 0.489 0.489 0 0 1 10.23 23.07 A 12.065 12.065 0 0 1 10.201 22.312 A 13.331 13.331 0 0 1 10.2 22.2 L 10.2 21.33 A 50.585 50.585 0 0 1 10.478 16.121 A 58.394 58.394 0 0 1 10.695 14.31 Q 11.19 10.65 12.33 6.39 A 10.435 10.435 0 0 0 12.418 6.059 Q 12.499 5.738 12.585 5.325 A 143.051 143.051 0 0 0 12.724 4.654 A 178.87 178.87 0 0 0 12.87 3.93 A 6.35 6.35 0 0 0 12.394 4.352 Q 11.841 4.889 11.16 5.745 A 30.6 30.6 0 0 0 10.209 7.011 Q 9.726 7.688 9.22 8.462 A 51.083 51.083 0 0 0 9.075 8.685 A 51.633 51.633 0 0 0 7.706 10.933 A 62.859 62.859 0 0 0 6.885 12.405 Q 5.79 14.43 4.89 16.515 A 43.761 43.761 0 0 0 3.427 20.385 A 40.092 40.092 0 0 0 3.345 20.64 A 20.61 20.61 0 0 0 2.827 22.59 A 15.174 15.174 0 0 0 2.55 24.42 A 14.561 14.561 0 0 1 1.885 24.21 Q 0.971 23.895 0.555 23.58 A 1.609 1.609 0 0 1 0.239 23.27 A 1.148 1.148 0 0 1 0 22.56 A 2.527 2.527 0 0 1 0.029 22.2 Q 0.083 21.832 0.235 21.329 A 11.289 11.289 0 0 1 0.33 21.03 Q 0.583 20.272 0.994 19.303 A 39.039 39.039 0 0 1 1.26 18.69 A 44.128 44.128 0 0 1 1.882 17.355 Q 2.22 16.659 2.616 15.895 A 73.93 73.93 0 0 1 2.73 15.675 Q 3.6 14.01 4.65 12.09 A 123.92 123.92 0 0 1 6.279 9.206 A 105.199 105.199 0 0 1 7.005 7.98 A 60.131 60.131 0 0 1 8.29 5.934 A 47.465 47.465 0 0 1 9.27 4.5 Q 10.38 2.94 11.445 1.8 Q 12.51 0.66 13.56 0.06 Q 13.939 0.06 14.551 0.231 A 8.447 8.447 0 0 1 14.685 0.27 Q 15.39 0.48 16.065 0.78 A 12.772 12.772 0 0 1 16.703 1.084 A 9.637 9.637 0 0 1 17.265 1.395 A 3.905 3.905 0 0 1 17.472 1.527 Q 17.766 1.73 17.836 1.882 A 0.264 0.264 0 0 1 17.85 1.92 A 10.319 10.319 0 0 0 17.602 2.459 Q 17.348 3.051 17.048 3.898 A 43.541 43.541 0 0 0 16.86 4.44 A 57.449 57.449 0 0 0 16.295 6.203 Q 16.011 7.138 15.724 8.183 A 93.249 93.249 0 0 0 15.705 8.25 Q 15.12 10.38 14.595 12.765 A 60.311 60.311 0 0 0 13.957 16.093 A 51.908 51.908 0 0 0 13.77 17.34 A 45.908 45.908 0 0 1 14.72 15.225 A 54.5 54.5 0 0 1 15.375 13.905 Q 16.29 12.12 17.31 10.365 Q 18.33 8.61 19.395 6.96 A 59.641 59.641 0 0 1 20.449 5.381 A 48.207 48.207 0 0 1 21.48 3.945 A 50.739 50.739 0 0 1 22.407 2.741 Q 22.851 2.182 23.267 1.697 A 30.147 30.147 0 0 1 23.385 1.56 Q 24.26 0.551 24.945 0.071 A 4.3 4.3 0 0 1 24.96 0.06 Q 25.339 0.06 25.951 0.231 A 8.447 8.447 0 0 1 26.085 0.27 Q 26.79 0.48 27.465 0.78 A 12.772 12.772 0 0 1 28.103 1.084 A 9.637 9.637 0 0 1 28.665 1.395 A 3.905 3.905 0 0 1 28.872 1.527 Q 29.166 1.73 29.236 1.882 A 0.264 0.264 0 0 1 29.25 1.92 Q 28.425 3.39 27.777 5.413 A 28.229 28.229 0 0 0 27.57 6.09 A 50.638 50.638 0 0 0 26.482 10.579 A 56.203 56.203 0 0 0 26.355 11.25 Q 25.86 13.95 25.605 16.605 Q 25.367 19.084 25.351 21.079 A 35.51 35.51 0 0 0 25.35 21.36 L 25.35 22.8 Q 25.35 23.55 25.41 24.36 Q 25.088 24.36 24.67 24.299 A 8.539 8.539 0 0 1 24.405 24.255 Q 23.82 24.15 23.265 23.97 A 7.991 7.991 0 0 1 22.674 23.753 A 6.395 6.395 0 0 1 22.26 23.565 A 2.549 2.549 0 0 1 22.005 23.42 Q 21.754 23.256 21.63 23.07 A 12.065 12.065 0 0 1 21.601 22.312 A 13.331 13.331 0 0 1 21.6 22.2 L 21.6 21.33 A 50.585 50.585 0 0 1 21.878 16.121 A 58.394 58.394 0 0 1 22.095 14.31 A 55.99 55.99 0 0 1 22.751 10.5 A 73.068 73.068 0 0 1 23.73 6.39 A 9.623 9.623 0 0 0 23.808 6.098 Q 23.897 5.745 24 5.25 Q 24.15 4.53 24.3 3.75 Q 23.502 4.149 22.501 5.238 A 14.263 14.263 0 0 0 22.395 5.355 A 18.96 18.96 0 0 0 21.39 6.578 Q 20.817 7.335 20.235 8.235 A 40.709 40.709 0 0 0 18.912 10.44 A 50.407 50.407 0 0 0 18.075 12 Q 17.01 14.07 16.155 16.215 Q 15.3 18.36 14.715 20.475 A 23.209 23.209 0 0 0 14.257 22.443 Q 14.073 23.44 14.011 24.346 A 14.197 14.197 0 0 0 14.01 24.36 Z M 53.52 12.93 A 1.139 1.139 0 0 0 53.182 13.01 Q 52.88 13.126 52.514 13.411 A 5.12 5.12 0 0 0 52.35 13.545 Q 51.761 14.044 51.097 14.783 A 20.207 20.207 0 0 0 50.865 15.045 Q 50.07 15.96 49.215 17.07 Q 48.36 18.18 47.565 19.275 A 588.16 588.16 0 0 0 46.796 20.336 A 480.363 480.363 0 0 0 46.08 21.33 Q 45.463 22.189 45.014 22.736 A 13.425 13.425 0 0 1 44.91 22.86 Q 44.25 22.59 43.77 22.065 Q 43.29 21.54 43.08 20.76 A 18.588 18.588 0 0 1 43.365 19.354 A 21.586 21.586 0 0 1 43.5 18.825 A 17.372 17.372 0 0 1 43.949 17.408 A 20.568 20.568 0 0 1 44.205 16.74 A 19.919 19.919 0 0 1 44.796 15.421 A 24.84 24.84 0 0 1 45.285 14.475 A 22.535 22.535 0 0 1 46.001 13.256 A 29.508 29.508 0 0 1 46.86 11.97 A 1.042 1.042 0 0 0 46.581 12.033 Q 46.191 12.173 45.63 12.615 Q 44.96 13.143 44.203 13.936 A 21.345 21.345 0 0 0 43.95 14.205 A 33.968 33.968 0 0 0 42.919 15.378 A 42.79 42.79 0 0 0 42.09 16.395 Q 41.13 17.61 40.29 18.78 Q 39.18 20.34 38.445 21.51 A 18.304 18.304 0 0 1 38.184 21.915 Q 37.648 22.719 37.38 22.89 A 4.326 4.326 0 0 1 36.863 22.45 Q 36.488 22.073 36.3 21.66 A 5.92 5.92 0 0 1 35.971 20.729 A 7.211 7.211 0 0 1 35.85 20.19 A 9.011 9.011 0 0 1 35.893 19.626 Q 35.922 19.354 35.967 19.045 A 20.584 20.584 0 0 1 36.075 18.39 A 17.432 17.432 0 0 1 36.46 16.736 A 19.85 19.85 0 0 1 36.63 16.17 Q 37.32 13.98 38.415 11.82 Q 39.51 9.66 40.53 7.86 A 5.427 5.427 0 0 1 41.596 8.202 A 4.729 4.729 0 0 1 42.045 8.43 A 5.433 5.433 0 0 1 42.639 8.832 Q 42.916 9.045 43.205 9.314 A 10.325 10.325 0 0 1 43.47 9.57 Q 43.17 10.5 42.54 11.535 Q 41.91 12.57 41.22 13.71 Q 40.53 14.85 39.96 16.05 A 8.651 8.651 0 0 0 39.276 18.096 A 7.968 7.968 0 0 0 39.21 18.48 A 99.199 99.199 0 0 1 39.884 17.529 Q 40.184 17.112 40.514 16.66 A 171.979 171.979 0 0 1 41.205 15.72 A 44.722 44.722 0 0 1 43.537 12.823 A 41.128 41.128 0 0 1 43.575 12.78 A 22.03 22.03 0 0 1 44.862 11.432 A 16.819 16.819 0 0 1 45.99 10.44 A 6.324 6.324 0 0 1 46.646 9.976 Q 47.46 9.48 48.15 9.48 A 2.5 2.5 0 0 1 48.562 9.516 A 3.355 3.355 0 0 1 48.93 9.6 A 4.634 4.634 0 0 1 49.55 9.824 A 4.117 4.117 0 0 1 49.71 9.9 Q 49.986 10.038 50.191 10.167 A 3.464 3.464 0 0 1 50.31 10.245 A 2.39 2.39 0 0 1 50.393 10.304 Q 50.526 10.405 50.567 10.472 A 0.142 0.142 0 0 1 50.58 10.5 A 3.8 3.8 0 0 1 50.455 10.895 Q 50.265 11.407 49.875 12.135 A 181.45 181.45 0 0 1 49.301 13.196 A 211.91 211.91 0 0 1 48.69 14.31 Q 48.06 15.45 47.52 16.515 A 11.219 11.219 0 0 0 47.252 17.08 Q 47.019 17.612 46.929 18.005 A 2.519 2.519 0 0 0 46.89 18.21 Q 48.36 16.2 49.65 14.565 A 43.943 43.943 0 0 1 50.75 13.223 Q 51.439 12.418 52.08 11.76 A 17.283 17.283 0 0 1 52.912 10.959 Q 53.586 10.354 54.195 9.96 A 4.688 4.688 0 0 1 54.882 9.589 Q 55.483 9.33 56.04 9.33 Q 56.64 9.33 57.165 9.645 Q 57.69 9.96 57.9 10.56 A 9.996 9.996 0 0 1 57.655 11.27 Q 57.514 11.637 57.329 12.05 A 22.373 22.373 0 0 1 57.015 12.72 A 95.089 95.089 0 0 0 56.084 14.686 A 108.349 108.349 0 0 0 55.77 15.375 A 41.284 41.284 0 0 0 54.771 17.782 A 37.604 37.604 0 0 0 54.645 18.12 A 9.284 9.284 0 0 0 54.325 19.172 Q 54.196 19.713 54.162 20.203 A 5.007 5.007 0 0 0 54.15 20.55 A 3.486 3.486 0 0 0 54.159 20.805 Q 54.188 21.207 54.32 21.363 A 0.341 0.341 0 0 0 54.33 21.375 Q 54.51 21.57 54.839 21.57 Q 55.2 21.57 55.515 21.435 Q 55.749 21.335 55.892 21.309 A 0.503 0.503 0 0 1 55.98 21.3 A 0.568 0.568 0 0 1 56.09 21.394 A 0.405 0.405 0 0 1 56.19 21.6 Q 56.22 21.78 56.22 21.93 A 7.172 7.172 0 0 1 55.303 22.557 A 6.327 6.327 0 0 1 54.99 22.725 Q 54.36 23.04 53.58 23.04 Q 52.86 23.04 52.395 22.8 Q 51.93 22.56 51.63 22.14 A 2.574 2.574 0 0 1 51.234 21.28 A 2.975 2.975 0 0 1 51.21 21.18 A 5.04 5.04 0 0 1 51.104 20.433 A 6.151 6.151 0 0 1 51.09 20.01 Q 51.09 18.99 51.36 17.985 Q 51.63 16.98 52.005 16.065 A 20.185 20.185 0 0 1 52.586 14.773 A 17.5 17.5 0 0 1 52.8 14.355 A 47.858 47.858 0 0 0 53.145 13.691 Q 53.351 13.284 53.52 12.93 Z M 74.7 16.26 Q 74.7 14.16 75.195 12.135 Q 75.69 10.11 76.59 8.295 Q 77.49 6.48 78.735 4.965 A 15.781 15.781 0 0 1 81.28 2.48 A 14.726 14.726 0 0 1 81.465 2.34 Q 82.95 1.23 84.63 0.615 Q 86.31 0 88.08 0 A 8.008 8.008 0 0 1 89.284 0.085 Q 90.511 0.272 91.305 0.87 A 2.799 2.799 0 0 1 92.442 2.921 A 3.889 3.889 0 0 1 92.46 3.3 A 4.731 4.731 0 0 1 92.351 4.295 A 5.416 5.416 0 0 1 92.295 4.53 A 6.105 6.105 0 0 1 91.854 5.698 A 6.754 6.754 0 0 1 91.815 5.775 Q 91.5 6.39 91.08 6.96 A 5.589 5.589 0 0 1 90.307 7.815 A 5.096 5.096 0 0 1 90.15 7.95 Q 89.37 7.83 88.8 7.245 Q 88.23 6.66 88.08 5.88 A 9.501 9.501 0 0 0 89.018 4.995 A 7.117 7.117 0 0 0 89.745 4.065 A 4.856 4.856 0 0 0 90.082 3.463 Q 90.234 3.135 90.303 2.83 A 2.226 2.226 0 0 0 90.36 2.34 Q 90.36 1.149 89.017 1.033 A 3.557 3.557 0 0 0 88.71 1.02 A 3.684 3.684 0 0 0 87.751 1.152 A 4.576 4.576 0 0 0 87.285 1.305 Q 86.55 1.59 85.8 2.1 A 9.179 9.179 0 0 0 84.745 2.942 A 10.799 10.799 0 0 0 84.345 3.33 Q 83.64 4.05 83.04 4.92 A 24.853 24.853 0 0 0 80.126 10.389 A 19.287 19.287 0 0 0 78.87 17.19 A 11.645 11.645 0 0 0 78.951 18.613 Q 79.039 19.322 79.221 19.913 A 5.244 5.244 0 0 0 79.56 20.76 A 4.012 4.012 0 0 0 80.034 21.493 Q 80.605 22.185 81.39 22.35 A 5.563 5.563 0 0 0 82.264 22.06 Q 83.153 21.689 84.284 20.951 A 22.34 22.34 0 0 0 84.66 20.7 Q 86.362 19.54 88.329 17.782 A 54.725 54.725 0 0 0 88.98 17.19 Q 89.254 17.464 89.328 17.764 A 0.938 0.938 0 0 1 89.34 17.82 Q 88.47 18.96 87.54 20.01 A 32.691 32.691 0 0 1 86.268 21.369 A 27.905 27.905 0 0 1 85.695 21.93 A 21.411 21.411 0 0 1 84.567 22.933 A 17.497 17.497 0 0 1 83.895 23.46 A 12.89 12.89 0 0 1 83.172 23.964 Q 82.813 24.195 82.48 24.37 A 6.968 6.968 0 0 1 82.26 24.48 Q 79.453 24.435 77.671 23.245 A 5.884 5.884 0 0 1 76.62 22.35 Q 74.7 20.28 74.7 16.26 Z M 112.71 21.48 Q 112.14 21 111.945 20.28 A 6.916 6.916 0 0 1 111.83 19.79 Q 111.785 19.557 111.765 19.352 A 3.168 3.168 0 0 1 111.75 19.05 A 4.44 4.44 0 0 1 111.775 18.568 Q 111.811 18.237 111.9 17.97 A 0.141 0.141 0 0 0 111.836 17.991 Q 111.702 18.065 111.408 18.396 A 8.34 8.34 0 0 0 111.36 18.45 Q 110.999 18.863 110.583 19.408 A 27.01 27.01 0 0 0 110.445 19.59 Q 109.95 20.25 109.47 20.88 Q 108.994 21.504 108.754 21.805 A 13.155 13.155 0 0 1 108.75 21.81 A 6.151 6.151 0 0 1 108.441 22.122 Q 108.289 22.263 108.145 22.375 A 3.173 3.173 0 0 1 108.015 22.47 Q 107.67 22.71 107.46 22.74 A 3.928 3.928 0 0 1 106.842 22.65 A 4.831 4.831 0 0 1 106.455 22.545 Q 105.93 22.38 105.465 22.08 Q 105 21.78 104.655 21.36 Q 104.31 20.94 104.19 20.4 A 27.333 27.333 0 0 1 104.193 19.999 Q 104.201 19.425 104.235 19.02 A 7.027 7.027 0 0 1 104.317 18.393 A 9.182 9.182 0 0 1 104.43 17.85 Q 104.662 16.87 105.082 15.669 A 32.624 32.624 0 0 1 105.225 15.27 Q 105.75 13.83 106.44 12.435 Q 107.13 11.04 107.985 9.825 A 9.678 9.678 0 0 1 108.753 8.862 Q 109.197 8.378 109.666 8.02 A 5.849 5.849 0 0 1 109.8 7.92 A 3.889 3.889 0 0 1 110.015 7.926 Q 110.205 7.937 110.43 7.965 A 3.973 3.973 0 0 1 111.025 8.088 A 4.517 4.517 0 0 1 111.165 8.13 Q 111.54 8.25 111.885 8.415 Q 112.23 8.58 112.47 8.85 Q 112.239 9.107 111.404 10.396 A 104.963 104.963 0 0 0 111.105 10.86 A 18.877 18.877 0 0 0 110.396 12.075 Q 109.702 13.363 108.919 15.173 A 65.772 65.772 0 0 0 108.66 15.78 A 5.063 5.063 0 0 0 108.581 15.964 Q 108.458 16.268 108.3 16.74 A 51.11 51.11 0 0 0 107.985 17.719 A 57.791 57.791 0 0 0 107.88 18.06 A 15.076 15.076 0 0 0 107.57 19.245 A 13.62 13.62 0 0 0 107.535 19.41 A 9.411 9.411 0 0 0 107.464 19.796 Q 107.407 20.15 107.401 20.402 A 2.428 2.428 0 0 0 107.4 20.46 Q 107.4 20.681 107.464 20.801 A 0.332 0.332 0 0 0 107.475 20.82 A 1.715 1.715 0 0 0 107.52 20.889 Q 107.569 20.959 107.61 21 A 1.406 1.406 0 0 0 107.881 20.85 Q 108.134 20.675 108.445 20.35 A 8.095 8.095 0 0 0 108.75 20.01 Q 109.278 19.39 110.123 18.26 A 92.711 92.711 0 0 0 110.67 17.52 A 41.234 41.234 0 0 1 110.953 17.13 Q 111.099 16.93 111.263 16.71 A 72.181 72.181 0 0 1 111.375 16.56 A 30.847 30.847 0 0 0 111.978 15.727 A 35.709 35.709 0 0 0 112.2 15.405 Q 112.62 14.79 112.995 14.13 A 8.868 8.868 0 0 0 113.515 13.058 A 7.923 7.923 0 0 0 113.61 12.81 A 12.56 12.56 0 0 1 113.711 12.521 Q 113.803 12.264 113.925 11.955 A 9.598 9.598 0 0 1 114.204 11.319 A 11.796 11.796 0 0 1 114.405 10.92 A 11.387 11.387 0 0 1 114.883 10.102 A 13.091 13.091 0 0 1 115.065 9.825 Q 115.44 9.27 115.95 8.79 A 3.862 3.862 0 0 1 116.408 8.819 A 4.937 4.937 0 0 1 116.79 8.88 A 7.235 7.235 0 0 1 117.517 9.064 A 6.507 6.507 0 0 1 117.645 9.105 Q 118.05 9.24 118.35 9.405 A 2.268 2.268 0 0 1 118.539 9.52 Q 118.63 9.583 118.702 9.648 A 1.032 1.032 0 0 1 118.8 9.75 Q 118.26 11.07 117.6 12.36 A 64.894 64.894 0 0 0 116.406 14.817 A 59.514 59.514 0 0 0 116.37 14.895 A 21.833 21.833 0 0 0 115.459 17.216 A 20.034 20.034 0 0 0 115.41 17.37 A 8.309 8.309 0 0 0 115.06 19.014 A 7.229 7.229 0 0 0 115.02 19.77 Q 115.02 20.309 115.097 20.727 A 3.487 3.487 0 0 0 115.125 20.865 A 8.013 8.013 0 0 0 115.206 21.193 Q 115.275 21.448 115.35 21.645 Q 115.47 21.96 115.575 22.17 A 1.339 1.339 0 0 1 115.63 22.295 Q 115.655 22.36 115.667 22.418 A 0.536 0.536 0 0 1 115.68 22.53 Q 115.68 22.558 115.628 22.612 A 0.625 0.625 0 0 1 115.62 22.62 A 0.135 0.135 0 0 1 115.602 22.636 Q 115.591 22.643 115.58 22.647 A 0.063 0.063 0 0 1 115.56 22.65 Q 115.35 22.65 115.02 22.56 A 5.348 5.348 0 0 1 114.694 22.459 Q 114.549 22.409 114.391 22.348 A 8.884 8.884 0 0 1 114.285 22.305 Q 113.88 22.14 113.475 21.93 Q 113.07 21.72 112.71 21.48 Z M 137.97 21.48 Q 137.4 21 137.205 20.28 A 6.916 6.916 0 0 1 137.09 19.79 Q 137.045 19.557 137.025 19.352 A 3.168 3.168 0 0 1 137.01 19.05 A 4.44 4.44 0 0 1 137.035 18.568 Q 137.071 18.237 137.16 17.97 A 0.141 0.141 0 0 0 137.096 17.991 Q 136.962 18.065 136.668 18.396 A 8.34 8.34 0 0 0 136.62 18.45 Q 136.259 18.863 135.843 19.408 A 27.01 27.01 0 0 0 135.705 19.59 Q 135.21 20.25 134.73 20.88 Q 134.254 21.504 134.014 21.805 A 13.155 13.155 0 0 1 134.01 21.81 A 6.151 6.151 0 0 1 133.701 22.122 Q 133.549 22.263 133.405 22.375 A 3.173 3.173 0 0 1 133.275 22.47 Q 132.93 22.71 132.72 22.74 A 3.928 3.928 0 0 1 132.102 22.65 A 4.831 4.831 0 0 1 131.715 22.545 Q 131.19 22.38 130.725 22.08 Q 130.26 21.78 129.915 21.36 Q 129.57 20.94 129.45 20.4 A 27.333 27.333 0 0 1 129.453 19.999 Q 129.461 19.425 129.495 19.02 A 7.027 7.027 0 0 1 129.577 18.393 A 9.182 9.182 0 0 1 129.69 17.85 Q 129.922 16.87 130.342 15.669 A 32.624 32.624 0 0 1 130.485 15.27 Q 131.01 13.83 131.7 12.435 Q 132.39 11.04 133.245 9.825 A 9.678 9.678 0 0 1 134.013 8.862 Q 134.457 8.378 134.926 8.02 A 5.849 5.849 0 0 1 135.06 7.92 A 3.889 3.889 0 0 1 135.275 7.926 Q 135.465 7.937 135.69 7.965 A 3.973 3.973 0 0 1 136.285 8.088 A 4.517 4.517 0 0 1 136.425 8.13 Q 136.8 8.25 137.145 8.415 Q 137.49 8.58 137.73 8.85 Q 137.499 9.107 136.664 10.396 A 104.963 104.963 0 0 0 136.365 10.86 A 18.877 18.877 0 0 0 135.656 12.075 Q 134.962 13.363 134.179 15.173 A 65.772 65.772 0 0 0 133.92 15.78 A 5.063 5.063 0 0 0 133.841 15.964 Q 133.718 16.268 133.56 16.74 A 51.11 51.11 0 0 0 133.245 17.719 A 57.791 57.791 0 0 0 133.14 18.06 A 15.076 15.076 0 0 0 132.83 19.245 A 13.62 13.62 0 0 0 132.795 19.41 A 9.411 9.411 0 0 0 132.724 19.796 Q 132.667 20.15 132.661 20.402 A 2.428 2.428 0 0 0 132.66 20.46 Q 132.66 20.681 132.724 20.801 A 0.332 0.332 0 0 0 132.735 20.82 A 1.715 1.715 0 0 0 132.78 20.889 Q 132.829 20.959 132.87 21 A 1.406 1.406 0 0 0 133.141 20.85 Q 133.394 20.675 133.705 20.35 A 8.095 8.095 0 0 0 134.01 20.01 Q 134.538 19.39 135.383 18.26 A 92.711 92.711 0 0 0 135.93 17.52 A 41.234 41.234 0 0 1 136.213 17.13 Q 136.359 16.93 136.523 16.71 A 72.181 72.181 0 0 1 136.635 16.56 A 30.847 30.847 0 0 0 137.238 15.727 A 35.709 35.709 0 0 0 137.46 15.405 Q 137.88 14.79 138.255 14.13 A 8.868 8.868 0 0 0 138.775 13.058 A 7.923 7.923 0 0 0 138.87 12.81 A 12.56 12.56 0 0 1 138.971 12.521 Q 139.063 12.264 139.185 11.955 A 9.598 9.598 0 0 1 139.464 11.319 A 11.796 11.796 0 0 1 139.665 10.92 A 11.387 11.387 0 0 1 140.143 10.102 A 13.091 13.091 0 0 1 140.325 9.825 Q 140.7 9.27 141.21 8.79 A 3.862 3.862 0 0 1 141.668 8.819 A 4.937 4.937 0 0 1 142.05 8.88 A 7.235 7.235 0 0 1 142.777 9.064 A 6.507 6.507 0 0 1 142.905 9.105 Q 143.31 9.24 143.61 9.405 A 2.268 2.268 0 0 1 143.799 9.52 Q 143.89 9.583 143.962 9.648 A 1.032 1.032 0 0 1 144.06 9.75 Q 143.52 11.07 142.86 12.36 A 64.894 64.894 0 0 0 141.666 14.817 A 59.514 59.514 0 0 0 141.63 14.895 A 21.833 21.833 0 0 0 140.719 17.216 A 20.034 20.034 0 0 0 140.67 17.37 A 8.309 8.309 0 0 0 140.32 19.014 A 7.229 7.229 0 0 0 140.28 19.77 Q 140.28 20.309 140.357 20.727 A 3.487 3.487 0 0 0 140.385 20.865 A 8.013 8.013 0 0 0 140.466 21.193 Q 140.535 21.448 140.61 21.645 Q 140.73 21.96 140.835 22.17 A 1.339 1.339 0 0 1 140.89 22.295 Q 140.915 22.36 140.927 22.418 A 0.536 0.536 0 0 1 140.94 22.53 Q 140.94 22.558 140.888 22.612 A 0.625 0.625 0 0 1 140.88 22.62 A 0.135 0.135 0 0 1 140.862 22.636 Q 140.851 22.643 140.84 22.647 A 0.063 0.063 0 0 1 140.82 22.65 Q 140.61 22.65 140.28 22.56 A 5.348 5.348 0 0 1 139.954 22.459 Q 139.809 22.409 139.651 22.348 A 8.884 8.884 0 0 1 139.545 22.305 Q 139.14 22.14 138.735 21.93 Q 138.33 21.72 137.97 21.48 Z M 122.73 10.65 L 121.02 10.65 A 0.623 0.623 0 0 1 120.945 10.53 Q 120.844 10.329 120.758 9.923 A 6.218 6.218 0 0 1 120.75 9.885 A 7.061 7.061 0 0 1 120.677 9.47 Q 120.63 9.143 120.63 8.88 A 108.128 108.128 0 0 0 121.766 8.962 A 95.645 95.645 0 0 0 122.13 8.985 A 122.277 122.277 0 0 0 122.82 9.026 A 92.956 92.956 0 0 0 123.45 9.06 Q 123.9 8.16 124.425 7.275 Q 124.95 6.39 125.445 5.655 A 17.927 17.927 0 0 1 125.808 5.135 Q 126.103 4.729 126.375 4.41 Q 126.809 3.901 127.049 3.751 A 0.721 0.721 0 0 1 127.05 3.75 Q 127.252 3.75 127.528 3.797 A 5.652 5.652 0 0 1 127.815 3.855 A 8.914 8.914 0 0 1 128.64 4.085 A 9.811 9.811 0 0 1 128.76 4.125 A 10.514 10.514 0 0 1 129.218 4.294 A 8.185 8.185 0 0 1 129.63 4.47 Q 130.02 4.65 130.17 4.83 A 37.095 37.095 0 0 0 129.346 5.912 Q 128.965 6.433 128.646 6.914 A 22.505 22.505 0 0 0 128.625 6.945 A 46.865 46.865 0 0 0 127.976 7.956 Q 127.639 8.495 127.278 9.099 A 76.365 76.365 0 0 0 127.23 9.18 Q 127.83 9.18 128.445 9.15 Q 129.06 9.12 129.69 9.06 A 1.032 1.032 0 0 1 129.868 9.302 A 1.287 1.287 0 0 1 129.93 9.435 Q 130.02 9.66 130.02 9.9 Q 128.55 10.44 126.45 10.5 Q 125.7 11.94 125.115 13.365 A 33.513 33.513 0 0 0 124.396 15.275 A 28.426 28.426 0 0 0 124.125 16.11 A 26.184 26.184 0 0 0 123.708 17.625 A 20.972 20.972 0 0 0 123.495 18.6 A 13.831 13.831 0 0 0 123.341 19.578 Q 123.283 20.065 123.273 20.501 A 8.008 8.008 0 0 0 123.27 20.7 Q 123.27 21.999 124.228 22.165 A 1.507 1.507 0 0 0 124.26 22.17 Q 125.16 22.05 125.97 21.72 A 5.816 5.816 0 0 0 127.126 21.095 A 5.257 5.257 0 0 0 127.41 20.88 A 2.275 2.275 0 0 1 127.499 21.025 Q 127.583 21.173 127.611 21.288 A 0.556 0.556 0 0 1 127.62 21.33 A 1.758 1.758 0 0 1 127.483 21.508 Q 127.304 21.713 127.005 21.96 A 11.831 11.831 0 0 1 126.31 22.492 A 13.478 13.478 0 0 1 126.06 22.665 A 9.538 9.538 0 0 1 125.45 23.047 A 7.757 7.757 0 0 1 125.07 23.25 Q 124.701 23.435 124.474 23.495 A 0.941 0.941 0 0 1 124.35 23.52 A 4.437 4.437 0 0 1 123.038 23.261 A 5.089 5.089 0 0 1 122.85 23.19 A 6.23 6.23 0 0 1 121.567 22.499 A 5.801 5.801 0 0 1 121.485 22.44 A 4.667 4.667 0 0 1 120.812 21.845 A 3.936 3.936 0 0 1 120.48 21.435 A 2.436 2.436 0 0 1 120.235 21.004 Q 120.106 20.706 120.092 20.412 A 1.501 1.501 0 0 1 120.09 20.34 A 6.886 6.886 0 0 1 120.113 19.801 Q 120.135 19.522 120.178 19.203 A 16.3 16.3 0 0 1 120.285 18.525 A 22.325 22.325 0 0 1 120.521 17.381 A 29.497 29.497 0 0 1 120.84 16.14 A 48.16 48.16 0 0 1 121.392 14.31 A 56.428 56.428 0 0 1 121.68 13.44 Q 122.16 12.03 122.73 10.65 Z M 144.435 19.245 A 55.245 55.245 0 0 0 144.401 19.374 Q 144.053 20.71 143.91 21.54 A 0.886 0.886 0 0 0 144 21.714 Q 144.106 21.876 144.3 22.05 A 4.67 4.67 0 0 0 144.475 22.2 A 5.401 5.401 0 0 0 144.975 22.56 A 6.116 6.116 0 0 0 145.119 22.649 A 5.379 5.379 0 0 0 145.725 22.965 Q 145.96 23.068 146.153 23.119 A 1.54 1.54 0 0 0 146.37 23.16 Q 146.651 21.866 146.95 20.795 A 27.05 27.05 0 0 1 147.315 19.59 A 14.681 14.681 0 0 1 147.752 18.428 A 11.603 11.603 0 0 1 148.515 16.935 Q 149.22 15.78 150.21 14.835 A 14.91 14.91 0 0 1 150.343 14.709 Q 150.817 14.269 151.38 13.818 A 24.886 24.886 0 0 1 152.61 12.9 Q 152.91 13.77 153.54 14.505 A 5.44 5.44 0 0 0 153.599 14.573 A 4.775 4.775 0 0 0 154.98 15.66 Q 155.43 15.21 155.805 14.7 A 7.928 7.928 0 0 0 155.926 14.531 Q 156.117 14.257 156.18 14.105 A 0.442 0.442 0 0 0 156.21 14.01 Q 155.82 13.35 155.82 12.03 Q 155.82 10.62 156.36 9.18 Q 156.257 9.015 156.04 8.9 A 1.54 1.54 0 0 0 155.82 8.805 Q 155.43 8.67 155.01 8.67 Q 154.56 8.67 154.38 8.82 A 24.59 24.59 0 0 1 154.107 9.22 A 21.998 21.998 0 0 1 152.055 11.76 A 39.757 39.757 0 0 1 150.716 13.11 A 51.898 51.898 0 0 1 149.19 14.52 Q 149.584 13.32 149.972 12.39 A 16.383 16.383 0 0 1 150.435 11.37 Q 151.05 10.14 151.86 9.18 A 1.708 1.708 0 0 0 151.758 9.072 Q 151.596 8.913 151.35 8.745 A 5.633 5.633 0 0 0 151.044 8.551 A 7.186 7.186 0 0 0 150.6 8.31 Q 150.18 8.1 149.73 7.95 A 5.61 5.61 0 0 0 149.454 7.866 Q 149.15 7.781 148.86 7.74 Q 148.5 8.1 148.2 8.625 Q 147.9 9.15 147.51 10.08 Q 146.97 11.37 146.4 12.99 Q 145.83 14.61 145.32 16.215 A 71.195 71.195 0 0 0 144.957 17.394 A 58.344 58.344 0 0 0 144.435 19.245 Z M 166.8 12.915 A 7.344 7.344 0 0 0 166.911 12.624 Q 167.353 11.381 167.46 9.72 Q 166.26 8.19 164.88 8.01 A 4.461 4.461 0 0 0 164.073 8.084 A 5.204 5.204 0 0 0 162.885 8.46 A 7.762 7.762 0 0 0 162.201 8.808 A 9.071 9.071 0 0 0 160.935 9.69 A 10.824 10.824 0 0 0 160.47 10.097 A 12.248 12.248 0 0 0 159.165 11.52 Q 158.34 12.57 157.725 13.755 Q 157.11 14.94 156.765 16.215 A 10.66 10.66 0 0 0 156.684 16.533 A 9.431 9.431 0 0 0 156.42 18.72 Q 156.42 20.52 157.575 21.795 Q 158.73 23.07 160.8 23.31 A 5.909 5.909 0 0 0 161.383 23.144 Q 162.561 22.743 163.845 21.795 A 12.97 12.97 0 0 0 165.025 20.809 A 15.485 15.485 0 0 0 166.8 18.81 Q 166.59 18.57 166.29 18.3 Q 166.048 18.557 165.772 18.841 A 61.422 61.422 0 0 1 165.195 19.425 Q 164.58 20.04 163.875 20.565 Q 163.17 21.09 162.39 21.45 A 4.314 4.314 0 0 1 162.329 21.478 A 3.742 3.742 0 0 1 160.8 21.81 A 1.335 1.335 0 0 1 160.549 21.788 A 0.952 0.952 0 0 1 160.11 21.585 A 1.382 1.382 0 0 1 159.904 21.371 A 1.607 1.607 0 0 1 159.69 21 Q 159.54 20.64 159.48 20.22 Q 159.42 19.8 159.42 19.41 Q 159.42 19.2 159.435 19.005 A 5.372 5.372 0 0 0 159.442 18.909 A 4.744 4.744 0 0 0 159.45 18.63 A 36.473 36.473 0 0 0 159.57 18.583 Q 160.47 18.228 161.263 17.859 A 22.551 22.551 0 0 0 162.81 17.07 A 12.945 12.945 0 0 0 163.839 16.428 A 10.265 10.265 0 0 0 165.255 15.255 Q 166.26 14.25 166.8 12.915 Z M 93.283 22.703 A 4.02 4.02 0 0 0 94.86 23.19 Q 96.66 22.8 98.175 21.855 Q 99.69 20.91 100.785 19.53 Q 101.88 18.15 102.495 16.455 Q 103.11 14.76 103.11 12.87 A 9.09 9.09 0 0 0 103.104 12.526 Q 103.064 11.474 102.772 10.87 A 1.31 1.31 0 0 0 101.52 10.05 A 2.285 2.285 0 0 0 101.518 10.05 Q 101.369 10.05 101.25 10.065 A 1.773 1.773 0 0 1 101.248 10.065 Q 101.188 10.073 101.12 10.076 A 2.58 2.58 0 0 1 100.98 10.08 Q 100.37 9.017 99.746 8.432 A 3.081 3.081 0 0 0 99.09 7.95 Q 98.123 7.95 97.06 8.505 A 7.932 7.932 0 0 0 96 9.18 A 10.502 10.502 0 0 0 95.612 9.483 A 11.592 11.592 0 0 0 94.05 11.04 Q 93.15 12.12 92.49 13.335 Q 91.83 14.55 91.47 15.84 A 10.512 10.512 0 0 0 91.296 16.559 A 8.828 8.828 0 0 0 91.11 18.33 Q 91.11 20.37 92.13 21.69 A 3.847 3.847 0 0 0 93.283 22.703 Z M 29.13 20.13 Q 29.13 19.86 29.175 19.455 Q 29.218 19.069 29.329 18.436 A 34.343 34.343 0 0 1 29.34 18.375 A 49.41 49.41 0 0 1 29.441 17.829 Q 29.533 17.34 29.655 16.74 Q 29.789 16.08 29.973 15.236 A 185.696 185.696 0 0 1 30.15 14.43 Q 30.21 14.13 30.42 13.47 A 10.382 10.382 0 0 1 30.699 12.704 A 13.178 13.178 0 0 1 30.975 12.075 Q 31.32 11.34 31.815 10.65 A 3.357 3.357 0 0 1 32.434 9.988 A 2.879 2.879 0 0 1 33 9.63 A 2.648 2.648 0 0 1 33.332 9.734 Q 33.68 9.867 34.136 10.122 A 11.095 11.095 0 0 1 34.35 10.245 A 4.472 4.472 0 0 1 35.626 11.386 A 5.273 5.273 0 0 1 35.79 11.61 A 11.344 11.344 0 0 0 35.05 12.536 A 9.237 9.237 0 0 0 34.635 13.17 Q 34.17 13.95 33.795 14.79 Q 33.42 15.63 33.105 16.53 Q 32.79 17.43 32.4 18.42 Q 32.07 19.26 31.8 20.145 Q 31.593 20.823 31.527 21.368 A 4.31 4.31 0 0 0 31.5 21.69 A 33.863 33.863 0 0 1 31.5 21.697 Q 31.5 22.232 31.485 22.455 Q 31.47 22.68 31.32 22.68 A 0.352 0.352 0 0 1 31.256 22.673 Q 31.144 22.652 30.931 22.567 A 5.701 5.701 0 0 1 30.84 22.53 Q 30.503 22.389 30.152 22.104 A 4.019 4.019 0 0 1 30.105 22.065 A 3.082 3.082 0 0 1 29.655 21.594 A 3.866 3.866 0 0 1 29.43 21.27 A 1.955 1.955 0 0 1 29.159 20.525 A 2.572 2.572 0 0 1 29.13 20.13 Z M 59.16 20.13 Q 59.16 19.86 59.205 19.455 Q 59.248 19.069 59.359 18.436 A 34.343 34.343 0 0 1 59.37 18.375 A 49.41 49.41 0 0 1 59.471 17.829 Q 59.563 17.34 59.685 16.74 Q 59.819 16.08 60.003 15.236 A 185.696 185.696 0 0 1 60.18 14.43 Q 60.24 14.13 60.45 13.47 A 10.382 10.382 0 0 1 60.729 12.704 A 13.178 13.178 0 0 1 61.005 12.075 Q 61.35 11.34 61.845 10.65 A 3.357 3.357 0 0 1 62.464 9.988 A 2.879 2.879 0 0 1 63.03 9.63 A 2.648 2.648 0 0 1 63.362 9.734 Q 63.71 9.867 64.166 10.122 A 11.095 11.095 0 0 1 64.38 10.245 A 4.472 4.472 0 0 1 65.656 11.386 A 5.273 5.273 0 0 1 65.82 11.61 A 11.344 11.344 0 0 0 65.08 12.536 A 9.237 9.237 0 0 0 64.665 13.17 Q 64.2 13.95 63.825 14.79 Q 63.45 15.63 63.135 16.53 Q 62.82 17.43 62.43 18.42 Q 62.1 19.26 61.83 20.145 Q 61.623 20.823 61.557 21.368 A 4.31 4.31 0 0 0 61.53 21.69 A 33.863 33.863 0 0 1 61.53 21.697 Q 61.53 22.232 61.515 22.455 Q 61.5 22.68 61.35 22.68 A 0.352 0.352 0 0 1 61.286 22.673 Q 61.174 22.652 60.961 22.567 A 5.701 5.701 0 0 1 60.87 22.53 Q 60.533 22.389 60.182 22.104 A 4.019 4.019 0 0 1 60.135 22.065 A 3.082 3.082 0 0 1 59.685 21.594 A 3.866 3.866 0 0 1 59.46 21.27 A 1.955 1.955 0 0 1 59.189 20.525 A 2.572 2.572 0 0 1 59.16 20.13 Z M 96.39 13.74 A 13.476 13.476 0 0 0 95.601 14.941 A 15.158 15.158 0 0 0 95.43 15.24 Q 94.98 16.05 94.65 16.875 Q 94.32 17.7 94.14 18.465 A 7.597 7.597 0 0 0 94.019 19.092 Q 93.973 19.401 93.963 19.678 A 4.211 4.211 0 0 0 93.96 19.83 Q 93.96 20.55 94.2 21.21 A 3.06 3.06 0 0 0 94.308 21.472 Q 94.43 21.729 94.565 21.855 A 0.45 0.45 0 0 0 94.74 21.96 Q 96.09 21.66 97.215 20.835 A 8.105 8.105 0 0 0 99.087 18.895 A 9.167 9.167 0 0 0 99.165 18.78 Q 99.99 17.55 100.455 15.99 A 11.321 11.321 0 0 0 100.904 13.316 A 13.044 13.044 0 0 0 100.92 12.66 A 11.006 11.006 0 0 0 100.911 12.205 Q 100.894 11.789 100.843 11.497 A 2.958 2.958 0 0 0 100.83 11.43 Q 100.74 10.98 100.53 10.65 Q 99.21 11.04 98.175 11.91 A 12.89 12.89 0 0 0 96.887 13.149 A 11.057 11.057 0 0 0 96.39 13.74 Z M 165.39 10.71 A 3.802 3.802 0 0 0 164.512 10.956 Q 164.143 11.107 163.761 11.339 A 6.376 6.376 0 0 0 163.71 11.37 A 6.501 6.501 0 0 0 162.638 12.21 A 8.131 8.131 0 0 0 162.075 12.81 A 10.582 10.582 0 0 0 161.172 14.052 A 13.053 13.053 0 0 0 160.68 14.91 Q 160.05 16.11 159.69 17.49 A 14.555 14.555 0 0 0 162.194 15.917 A 12.094 12.094 0 0 0 163.68 14.535 A 7.146 7.146 0 0 0 164.79 12.939 A 5.668 5.668 0 0 0 165.39 10.71 Z M 34.867 6.995 A 1.071 1.071 0 0 0 34.86 7.11 A 0.482 0.482 0 0 0 34.904 7.307 Q 34.969 7.453 35.13 7.605 Q 35.4 7.86 35.76 7.92 A 1.359 1.359 0 0 1 35.774 7.892 Q 35.871 7.709 36.12 7.359 A 17.402 17.402 0 0 1 36.3 7.11 Q 36.72 6.54 37.23 5.895 Q 37.74 5.25 38.28 4.665 A 58.495 58.495 0 0 1 38.522 4.405 Q 38.775 4.134 38.972 3.931 A 17.608 17.608 0 0 1 39.15 3.75 A 2.671 2.671 0 0 0 39.023 3.59 Q 38.911 3.458 38.768 3.32 A 5.698 5.698 0 0 0 38.46 3.045 Q 38.01 2.67 37.47 2.355 A 7.702 7.702 0 0 0 37.134 2.17 A 6.513 6.513 0 0 0 36.405 1.845 A 4.167 4.167 0 0 0 36.105 1.746 Q 35.943 1.699 35.8 1.675 A 1.706 1.706 0 0 0 35.52 1.65 Q 35.34 2.13 35.16 2.715 A 16.287 16.287 0 0 0 35.064 3.041 A 14 14 0 0 0 34.86 3.84 Q 34.74 4.38 34.665 4.845 A 9.68 9.68 0 0 0 34.651 4.933 Q 34.59 5.336 34.59 5.58 Q 34.59 5.82 34.695 6.12 Q 34.759 6.303 34.84 6.43 A 0.814 0.814 0 0 0 34.95 6.57 A 5.245 5.245 0 0 0 34.914 6.723 Q 34.88 6.881 34.867 6.995 Z M 64.897 6.995 A 1.071 1.071 0 0 0 64.89 7.11 A 0.482 0.482 0 0 0 64.934 7.307 Q 64.999 7.453 65.16 7.605 Q 65.43 7.86 65.79 7.92 A 1.359 1.359 0 0 1 65.804 7.892 Q 65.901 7.709 66.15 7.359 A 17.402 17.402 0 0 1 66.33 7.11 Q 66.75 6.54 67.26 5.895 Q 67.77 5.25 68.31 4.665 A 58.495 58.495 0 0 1 68.552 4.405 Q 68.805 4.134 69.002 3.931 A 17.608 17.608 0 0 1 69.18 3.75 A 2.671 2.671 0 0 0 69.053 3.59 Q 68.941 3.458 68.798 3.32 A 5.698 5.698 0 0 0 68.49 3.045 Q 68.04 2.67 67.5 2.355 A 7.702 7.702 0 0 0 67.164 2.17 A 6.513 6.513 0 0 0 66.435 1.845 A 4.167 4.167 0 0 0 66.135 1.746 Q 65.973 1.699 65.83 1.675 A 1.706 1.706 0 0 0 65.55 1.65 Q 65.37 2.13 65.19 2.715 A 16.287 16.287 0 0 0 65.094 3.041 A 14 14 0 0 0 64.89 3.84 Q 64.77 4.38 64.695 4.845 A 9.68 9.68 0 0 0 64.681 4.933 Q 64.62 5.336 64.62 5.58 Q 64.62 5.82 64.725 6.12 Q 64.789 6.303 64.87 6.43 A 0.814 0.814 0 0 0 64.98 6.57 A 5.245 5.245 0 0 0 64.944 6.723 Q 64.91 6.881 64.897 6.995 Z"/></g></svg>